# xmcd
#
# Track frame offsets: 
#        150
#        28855
#        78645
#        101021
#        137818
#        167216
#        199302
#        225988
#        250912
#        274578
#
# Disc length: 3764 seconds
#
# Revision: 2
# Processed by: cddbd v1.5.2PL0 Copyright (c) Steve Scherf et al.
# Submitted via: ExactAudioCopyFreeDBPlugin 1.0
#
DISCID=880eb20a
DTITLE=Art Blakey's Jazz Messengers - Ugetsu
DYEAR=1963
DGENRE=Jazz
TTITLE0=One By One
TTITLE1=Ugetsu
TTITLE2=Time Off
TTITLE3=Ping-Pong
TTITLE4=I Didn't Know What Time It Was
TTITLE5=On The Ginza
TTITLE6=Eva
TTITLE7=The High Priest
TTITLE8=Conception
TTITLE9=The Theme
EXTD=YEAR: 2011
EXTT0=
EXTT1=
EXTT2=
EXTT3=
EXTT4=
EXTT5=
EXTT6=
EXTT7=
EXTT8=
EXTT9=
PLAYORDER=
